<?xml version="1.0" standalone="no"?><!DOCTYPE svg PUBLIC "-//W3C//DTD SVG 1.1//EN" "http://www.w3.org/Graphics/SVG/1.1/DTD/svg11.dtd"><svg t="1707038550839" class="icon" viewBox="0 0 1024 1024" version="1.1" xmlns="http://www.w3.org/2000/svg" p-id="2298" xmlns:xlink="http://www.w3.org/1999/xlink" width="128" height="128"><path d="M654.933333 195.285333a85.333333 85.333333 0 0 1 13.525334 46.037334V782.506667a85.333333 85.333333 0 0 1-131.413334 71.808l-216.96-139.178667a28.458667 28.458667 0 0 0-15.658666-4.693333H170.666667a85.333333 85.333333 0 0 1-85.333334-85.333334V397.909333a85.333333 85.333333 0 0 1 85.333334-85.333333h134.485333c5.589333 0 11.093333-1.621333 15.701333-4.693333l216.234667-138.496a85.333333 85.333333 0 0 1 117.888 25.856z m-53.845333 34.56a21.333333 21.333333 0 0 0-26.026667-8.277333l-3.456 1.792-215.466666 137.941333c-12.970667 8.576-27.818667 13.738667-43.221334 15.018667l-7.765333 0.298667H170.666667a21.333333 21.333333 0 0 0-20.992 17.493333l-0.341334 3.84v227.114667a21.333333 21.333333 0 0 0 17.493334 20.992l3.84 0.341333h133.76c15.488 0 30.72 3.925333 43.861333 11.050667l6.4 3.84 216.917333 139.178666a21.333333 21.333333 0 0 0 32.512-14.122666l0.341334-3.84V241.322667a21.333333 21.333333 0 0 0-1.536-7.893334l-1.834667-3.626666zM746.112 362.709333a32 32 0 0 1 41.173333 18.773334c15.445333 41.386667 23.466667 85.461333 23.466667 130.517333 0 44.032-7.68 87.04-22.442667 127.616a32 32 0 0 1-60.16-21.845333A308.693333 308.693333 0 0 0 746.752 512c0-37.418667-6.613333-73.856-19.413333-108.117333a32 32 0 0 1 18.773333-41.173334zM839.509333 292.565333a32 32 0 0 1 43.690667 11.733334A414.208 414.208 0 0 1 938.709333 512a414.208 414.208 0 0 1-55.68 208.042667 32 32 0 0 1-55.381333-32.042667A350.208 350.208 0 0 0 874.666667 512a350.208 350.208 0 0 0-46.933334-175.701333 32 32 0 0 1 11.733334-43.733334z" fill="#000000" p-id="2299"></path></svg>