<?xml version="1.0" standalone="no"?><!DOCTYPE svg PUBLIC "-//W3C//DTD SVG 1.1//EN" "http://www.w3.org/Graphics/SVG/1.1/DTD/svg11.dtd"><svg t="1707038559192" class="icon" viewBox="0 0 1024 1024" version="1.1" xmlns="http://www.w3.org/2000/svg" p-id="2458" xmlns:xlink="http://www.w3.org/1999/xlink" width="128" height="128"><path d="M108.8 177.792a29.994667 29.994667 0 0 1 38.698667-3.2l3.712 3.2 640 640a29.994667 29.994667 0 0 1-38.698667 45.568l-3.712-3.157333-640-640a29.994667 29.994667 0 0 1 0-42.410667z" fill="#000000" p-id="2459"></path><path d="M247.082667 312.576l63.786666 63.786667-5.717333 0.256H170.666667a21.333333 21.333333 0 0 0-20.992 17.493333l-0.341334 3.84v227.114667a21.333333 21.333333 0 0 0 17.493334 20.992l3.84 0.341333h133.76c15.488 0 30.72 3.925333 43.861333 11.050667l6.4 3.84 216.917333 139.178666a21.333333 21.333333 0 0 0 32.512-14.122666l0.341334-3.84-0.042667-112.554667 64 64v48.554667a85.333333 85.333333 0 0 1-131.413333 71.808l-216.917334-139.178667a28.458667 28.458667 0 0 0-15.658666-4.693333H170.666667a85.333333 85.333333 0 0 1-85.333334-85.333334V397.909333a85.333333 85.333333 0 0 1 85.333334-85.333333h76.416z m407.893333-117.290667a85.333333 85.333333 0 0 1 13.482667 46.037334l-0.042667 371.925333-64-64V241.322667a21.333333 21.333333 0 0 0-1.493333-7.893334l-1.834667-3.626666a21.333333 21.333333 0 0 0-26.026667-8.234667l-3.456 1.792-178.730666 114.389333L346.581333 291.413333l190.506667-121.984a85.333333 85.333333 0 0 1 117.888 25.856zM746.112 362.709333a32 32 0 0 1 41.173333 18.773334c15.445333 41.386667 23.466667 85.461333 23.466667 130.517333 0 44.032-7.68 87.04-22.442667 127.616a32 32 0 1 1-60.16-21.845333A308.693333 308.693333 0 0 0 746.752 512c0-37.418667-6.613333-73.856-19.413333-108.117333a32 32 0 0 1 18.773333-41.173334zM839.509333 292.565333a32 32 0 0 1 43.690667 11.733334A414.208 414.208 0 0 1 938.709333 512a414.208 414.208 0 0 1-55.68 208.042667 32 32 0 1 1-55.381333-32.042667A350.208 350.208 0 0 0 874.666667 512a350.208 350.208 0 0 0-46.933334-175.701333 32 32 0 0 1 11.733334-43.733334z" fill="#000000" p-id="2460"></path></svg>